# xmcd
#
# Track frame offsets: 
#        150
#        32422
#        49032
#        79962
#        103680
#        142210
#        160497
#        187140
#        208405
#
# Disc length: 3087 seconds
#
# Revision: 1
# Processed by: cddbd v1.5PL3 Copyright (c) Steve Scherf et al.
# Submitted via: ExactAudioCopy v0.95a3
#
DISCID=870c0d09
DTITLE=Barbara Walker - Simply Live
DYEAR=1999
DGENRE=Blues
TTITLE0=Everybody Wants To Rule The World
TTITLE1=Something Happens To Me
TTITLE2=You Taught My Heart To Sing
TTITLE3=Twisted
TTITLE4=It's Probably Me
TTITLE5=Sesame Street
TTITLE6=When October Goes
TTITLE7=Astrud
TTITLE8=One Eyed Man
EXTD=ID3G: 0
EXTT0=
EXTT1=
EXTT2=
EXTT3=
EXTT4=
EXTT5=
EXTT6=
EXTT7=
EXTT8=
PLAYORDER=
